<svg width="166" height="166" viewBox="0 0 166 166" fill="none" xmlns="http://www.w3.org/2000/svg">
  <!-- Background circle -->
  <circle cx="83" cy="83" r="80" fill="#a3845b"/>

  <!-- Modern architectural building -->
  <g transform="translate(33, 33) scale(4.2)">
    <!-- Main building structure -->
    <path d="M12 2L2 7v10c0 5.55 3.84 10 9 11 1.04.2 2.96.2 4 0 5.16-1 9-5.45 9-11V7l-10-5z" fill="white"/>
    <path d="M12 4.5L4 8.5v8c0 3.5 2.5 7 7 8 .5.1 1.5.1 2 0 4.5-1 7-4.5 7-8v-8l-8-4z" fill="none" stroke="#a3845b" stroke-width="0.5"/>

    <!-- Building towers -->
    <rect x="8" y="10" width="2" height="6" fill="white" opacity="0.9"/>
    <rect x="11" y="8" width="2" height="8" fill="white" opacity="0.9"/>
    <rect x="14" y="12" width="2" height="4" fill="white" opacity="0.9"/>

    <!-- Windows -->
    <rect x="8.5" y="11" width="1" height="1" fill="#a3845b" opacity="0.8"/>
    <rect x="8.5" y="13" width="1" height="1" fill="#a3845b" opacity="0.8"/>
    <rect x="11.5" y="9" width="1" height="1" fill="#a3845b" opacity="0.8"/>
    <rect x="11.5" y="11" width="1" height="1" fill="#a3845b" opacity="0.8"/>
    <rect x="11.5" y="13" width="1" height="1" fill="#a3845b" opacity="0.8"/>
    <rect x="14.5" y="13" width="1" height="1" fill="#a3845b" opacity="0.8"/>
  </g>

  <!-- Subtle border -->
  <circle cx="83" cy="83" r="80" fill="none" stroke="#1c1c1d" stroke-width="3" opacity="0.1"/>
</svg>
